<svg id="Layer_2" data-name="Layer 2" xmlns="http://www.w3.org/2000/svg" xmlns:xlink="http://www.w3.org/1999/xlink" viewBox="0 0 400 300" width="406" height="306" class="illustration styles_illustrationTablet__1DWOa"><defs><linearGradient id="linear-gradient" x1="173.79" y1="211.19" x2="131.43" y2="236.11" gradientUnits="userSpaceOnUse"><stop offset="0" stop-opacity="0"></stop><stop offset="0.99" stop-color="#006837"></stop></linearGradient><linearGradient id="linear-gradient-2" x1="310.13" y1="206.3" x2="341.61" y2="191.68" xlink:href="#linear-gradient"></linearGradient></defs><title>PP</title><path d="M195.22,288.83,15.5,182.61c-5.72-3.21-10.63-8.49-5.05-11.94l180.37-104c2.71-1.68,6.82-2.78,9.57-1.18L389,175c5.72,3.32,6.75,12.6,1,15.93L218.91,288.66A23.9,23.9,0,0,1,195.22,288.83Z" fill="#20baab"></path><path d="M110.09,238.53l67.11-38.38,26.3-8.47,10.63-3.78,10.5,1.31L128.46,248S123.82,245.24,110.09,238.53Z" opacity="0.32" fill="url(#linear-gradient)"></path><polyline points="142.3 102.42 156.68 93.19 158.05 103.92 154.54 111.08" fill="#2e3192"></polyline><path d="M147.72,229.66a4.29,4.29,0,0,0,1.85-1.59c2.17-3.32,1.27-8.93-.2-12.35-1.33-3.1-1-10.9-1-10.9L141.23,201s0,17.16,0,17.35c.69,3,1.07,10.49,4.93,11.45A2.48,2.48,0,0,0,147.72,229.66Z" fill="#42342d"></path><path d="M164.22,130.87c.42,1.1,4.35,65.4.21,73.58a20.8,20.8,0,0,1-10.92,2.31l-1.35,4.79s-10.15,3.15-17.48.09c0,0-4.24-57.43,8.72-81" fill="#68e1fd"></path><path d="M157.07,146.25q-1,30.33-4.19,60.54c-.07.62.91.62,1,0Q157,176.6,158,146.25C158.07,145.62,157.09,145.62,157.07,146.25Z" fill="#fff"></path><path d="M111.23,117.45l-.69-.61a.73.73,0,0,0,0-1c-.65-.69-1.32-1.37-2-2a.7.7,0,0,0-.1-.3,19.41,19.41,0,0,1-2.62-5.39c-.38-1.57-.45-3.19-.84-4.77-.14-.56-.83-.52-1.17-.21a1.67,1.67,0,0,0-.48,1.08,5.57,5.57,0,0,0-.06,2.61c0-.28-.47-.7-.63-.94l-.74-1.13a9.6,9.6,0,0,0-1.32-1.67c-.49-.46-1.23-.5-1.42,0-.29.74.53,1.59.88,2.21s.64,1.16,1,1.76c-.47-.52-1.37-1.4-2-2s-1.86-2.07-2.59-1.52.12,1.67.55,2.19l1.25,1.49c.37.44.82,1,1.21,1.43,0,0-1.3-.95-2-1.46s-1.17-1-1.86-.53c-.45.33-.15,1.06.24,1.42,1,.95,2.13,1.83,3.24,2.68-.61-.26-1.22-.55-1.84-.79a.71.71,0,0,0-.9,1,.59.59,0,0,0,.22.31l9,6.4a13.25,13.25,0,0,0,3.72,2.81c.79.4,1.37-.84.58-1.23l-.11-.06a.68.68,0,0,0,0-.12.72.72,0,0,0,.33-.51l.05,0a.69.69,0,0,0,.24,0A.68.68,0,0,0,111.23,117.45Z" fill="#ffb7a2"></path><path d="M102.59,107.66a4.13,4.13,0,0,0-.25,3.9c.13.28.58.12.46-.16a3.68,3.68,0,0,1,.23-3.53C103.19,107.6,102.75,107.4,102.59,107.66Z" fill="#42342d"></path><path d="M101.72,107.19q-1.13-1.62-2.12-3.33c-.16-.27-.55,0-.4.28q1,1.71,2.12,3.33A.24.24,0,0,0,101.72,107.19Z" fill="#42342d"></path><path d="M100.16,108.88a27.67,27.67,0,0,1-3-3.59.24.24,0,0,0-.4.28,28.43,28.43,0,0,0,3.05,3.68C100.06,109.47,100.37,109.1,100.16,108.88Z" fill="#42342d"></path><path d="M100.09,110.92a18.17,18.17,0,0,1-3.75-2.81c-.22-.22-.53.15-.31.37a18.66,18.66,0,0,0,3.86,2.88C100.15,111.51,100.36,111.07,100.09,110.92Z" fill="#42342d"></path><path d="M160.6,131.13c-.82-3.12-2.25-7.12-2.46-7.85q-.77-2.77-1.59-5.53-1-3.34-2-6.67c-1-3.19-1.95-7-5.05-8.84-3.27-1.89-8.53-1-11.74.64s-5.53,4.9-6.78,8.48c2.15,9.51,7.64,16.7,11.05,25.82C149.2,136.76,157,137.2,160.6,131.13Z" fill="#2e3192"></path><path d="M137.46,103.56a17,17,0,0,0-6.76,5.07c-1.33,1.76-1.68,4-3.22,5.58-2.08,2.17-5.79,3.49-8.64,2.08a49.12,49.12,0,0,1-4.54-2.73c-1.14-.72-6.2-4.77-7.66-3.54-1.71,1.45-3.56,5.24-3.12,6.86S118.2,132,126,130.52a20.92,20.92,0,0,0,12.15-7.63" fill="#2e3192"></path><path d="M134.6,100.37l1.78,5a10.79,10.79,0,0,0,6-2.15l-1.6-4.48" fill="#fcaa97"></path><path d="M140.94,85.19c.38,0,7.89,14,1.77,16.35s-9-2.1-9.67-3.28,0-5.65.09-7.27S139.3,85.35,140.94,85.19Z" fill="#ffb7a2"></path><path d="M141.17,83.41c-3.06-2.69-10.53-.89-13.89,5.49a7.81,7.81,0,0,0-.22,5.76,11.22,11.22,0,0,0,9.05,6.67l0,0-.15-.26-.11-.19a13.93,13.93,0,0,1-2.11-8.49c.4-2.79,2.63-4.33,4.93-5.58a8.16,8.16,0,0,1,2.32-1.1l2.16,3.53A5.47,5.47,0,0,0,141.17,83.41Z" fill="#be6b3d"></path><circle cx="123.38" cy="91.82" r="5.04" transform="translate(-26.46 57.15) rotate(-23.63)" fill="#be6b3d"></circle><path d="M142.76,88l-5.84,2.09-1.17-1.56.27,2.36-1.63.69s3.12,9,1.91,9.66-4.38-2.57-5.38-4.75-1.49-7.49,2.26-10.3C137.9,82.65,141,83.93,142.76,88Z" fill="#be6b3d"></path><polyline points="222.29 19.48 229.07 22.48 222.55 25.35 220.98 21.98" fill="#ef7f6c"></polyline><path d="M160.46,218.82,216.83,186a15,15,0,0,0,7.46-13l1.82-149.21c0-3.92-6.08-5.91-9.45-3.92L158.35,54.31a9.66,9.66,0,0,0-4.75,8.32V214.88A4.57,4.57,0,0,0,160.46,218.82Z" fill="#ef7f6c"></path><polyline points="155.95 218.87 163.32 222.76 162.46 217.62 157.34 216.7" fill="#ef7f6c"></polyline><path d="M167.53,222.56l56.37-32.85a15,15,0,0,0,7.46-13V26.1a4,4,0,0,0-6-3.44l-59.92,35.4a9.66,9.66,0,0,0-4.75,8.32V218.62A4.57,4.57,0,0,0,167.53,222.56Z" fill="#f4f4f4"></path><polygon points="164.24 75.57 228.46 38.74 228.46 170.52 164.24 207.64 164.24 75.57" fill="#68e1fd"></polygon><ellipse cx="202.33" cy="194.56" rx="4" ry="2.96" transform="translate(-33.89 346.19) rotate(-76.57)" fill="#bababc"></ellipse><path d="M204.73,45.08h0a1.43,1.43,0,0,1-.72,1.24l-12.41,7.13a1.43,1.43,0,0,1-2.15-1.24v-.31a1.43,1.43,0,0,1,.74-1.26l12.41-6.83A1.43,1.43,0,0,1,204.73,45.08Z" fill="#ccc"></path><ellipse cx="210.43" cy="41.29" rx="1.91" ry="1.4" transform="translate(98.68 224.31) rotate(-69.69)" fill="#ccc"></ellipse><path d="M210.36,70.74v8.34a1.73,1.73,0,0,0,2.56,1.51l7.7-4.23a1.73,1.73,0,0,0,.89-1.51V66.32a1.73,1.73,0,0,0-2.58-1.5l-7.7,4.42A1.73,1.73,0,0,0,210.36,70.74Z" fill="#ef7f6c"></path><path d="M171.62,92.91v8.34a1.73,1.73,0,0,0,2.56,1.51l7.7-4.23a1.73,1.73,0,0,0,.89-1.51V88.49a1.73,1.73,0,0,0-2.58-1.5l-7.7,4.42A1.73,1.73,0,0,0,171.62,92.91Z" fill="#7eb753"></path><path d="M191.44,82.19v8.34A1.73,1.73,0,0,0,194,92l7.7-4.23a1.73,1.73,0,0,0,.89-1.51V77.77a1.73,1.73,0,0,0-2.58-1.5l-7.7,4.42A1.73,1.73,0,0,0,191.44,82.19Z" fill="#f2f2f2"></path><ellipse cx="180.04" cy="179.56" rx="8.34" ry="6.21" transform="translate(-45.61 296.77) rotate(-72.37)" fill="#f2f2f2"></ellipse><ellipse cx="180.4" cy="177.51" rx="3.26" ry="2.23" transform="translate(-31.39 316.07) rotate(-77.73)" fill="#c4b7b3"></ellipse><path d="M176,186.71s1.34-5.88,4.73-6.59S185,183.7,185,183.7a7.47,7.47,0,0,1-4.47,3.8C177.09,188.65,176,186.71,176,186.71Z" fill="#c4b7b3"></path><ellipse cx="199.91" cy="168.01" rx="9.03" ry="6.72" transform="translate(-20.76 307.64) rotate(-72.37)" fill="#ea7554"></ellipse><path d="M197.1,163.86c.22-.06,2.11,1.13,2,1.52s-1,1.74-.88,2,2,2.64,3.11,2.79a13.91,13.91,0,0,0,2-1.55,2.2,2.2,0,0,1,1.37,1.64c0,.44-1.76,1.91-2.85,2.29-1.41.49-5.77-4.35-6.29-5.6S197.1,163.86,197.1,163.86Z" fill="#fff"></path><path d="M212.55,102v8.34a1.73,1.73,0,0,0,2.56,1.51l7.7-4.23a1.73,1.73,0,0,0,.89-1.51V97.54a1.73,1.73,0,0,0-2.58-1.5l-7.7,4.42A1.73,1.73,0,0,0,212.55,102Z" fill="#7eb753"></path><path d="M174.47,123.81v8.34a1.73,1.73,0,0,0,2.56,1.51l7.7-4.23a1.73,1.73,0,0,0,.89-1.51v-8.53a1.73,1.73,0,0,0-2.58-1.5l-7.7,4.42A1.73,1.73,0,0,0,174.47,123.81Z" fill="#ef7f6c"></path><path d="M194.57,112.58v8.34a1.73,1.73,0,0,0,2.56,1.51l7.7-4.23a1.73,1.73,0,0,0,.89-1.51v-8.53a1.73,1.73,0,0,0-2.58-1.5l-7.7,4.42A1.73,1.73,0,0,0,194.57,112.58Z" fill="#7eb753"></path><path d="M213.17,156.26v8.34a1.73,1.73,0,0,0,2.56,1.51l7.7-4.23a1.73,1.73,0,0,0,.89-1.51v-8.53a1.73,1.73,0,0,0-2.58-1.5l-7.7,4.42A1.73,1.73,0,0,0,213.17,156.26Z" fill="#ffac99"></path><ellipse cx="219.28" cy="158.71" rx="3.31" ry="2.4" transform="translate(-13.14 297.46) rotate(-66.73)" fill="#fff"></ellipse><path d="M218.14,108.08c.39,12.17-7.5,25.11-17.37,29s-17.72-2.72-18.08-14.25c-.38-12.12,7.59-25.13,17.32-28.88l.2-.08C209.76,90.15,217.76,96.5,218.14,108.08Zm-15.92,3.79,0-.14c0-1,0-2,0-3a2.92,2.92,0,0,1,.05-.54A1.27,1.27,0,0,1,203,107c.32-.15.64-.28,1-.4l2.3-.91c.15-.06.21-.14.21-.34,0-1.43,0-2.86,0-4.3,0-.19-.06-.21-.2-.16l-3.55,1.4a6.21,6.21,0,0,0-2.65,2.13,10.21,10.21,0,0,0-2.15,6c0,.59,0,1.16,0,1.73,0,.34,0,.69,0,1s-.05.29-.22.35l-3.34,1.28c-.15.06-.2.13-.19.33s0,.66,0,1c0,1,0,2,0,3,0,.32,0,.32.26.22l3.26-1.26c.25-.09.25-.09.25.2l.16,12.65c0,.32,0,.32.26.22l3.73-1.44.1,0,.1-.05c.08-.05.08-.13.07-.35l-.17-12.69c0-.07,0-.14,0-.24l.31-.12,3.85-1.48a.28.28,0,0,0,.21-.32q0-1,0-2t0-2c0-.22-.05-.28-.25-.2l-1.24.48-2.47,1-.41.16" fill="#2e3192"></path><path d="M206.27,100.94c.14-.06.2,0,.2.16,0,1.44,0,2.87,0,4.3,0,.2-.06.28-.21.34l-2.3.91c-.32.12-.64.26-1,.4a1.27,1.27,0,0,0-.81,1.15,2.92,2.92,0,0,0-.05.54c0,1,0,2,0,3l0,.14.41-.16,2.47-1,1.24-.48c.2-.08.25,0,.25.2q0,1,0,2t0,2a.28.28,0,0,1-.21.32l-3.85,1.48-.31.12c0,.1,0,.17,0,.24l.17,12.69c0,.22,0,.3-.07.35l-.1.05-.1,0-3.73,1.44c-.26.1-.26.1-.26-.22L198,118.33c0-.3,0-.3-.25-.2l-3.26,1.26c-.25.1-.25.1-.26-.22,0-1,0-2,0-3q0-.49,0-1c0-.19,0-.27.19-.33l3.34-1.28c.17-.07.22-.14.22-.35s0-.69,0-1c0-.57,0-1.15,0-1.73a10.21,10.21,0,0,1,2.15-6,6.21,6.21,0,0,1,2.65-2.13Z" fill="#fff"></path><path d="M204.87,57.15l19.22-11.09a2.91,2.91,0,0,1,4.36,2.52V61.06A2.91,2.91,0,0,1,227,63.57L207.8,74.89a2.91,2.91,0,0,1-4.39-2.51V59.67A2.91,2.91,0,0,1,204.87,57.15Z" fill="#f24c4c"></path><polyline points="214.47 70.31 217.96 74.49 220.8 66.49" fill="#f24c4c"></polyline><path d="M216,59.56s-2.36-3.81-4.68-.92c-1.33,1.66,1.09,6.67,4.56,7.2,3.14.48,7.55-10.28,3.16-10.4C216.2,55.35,216,59.56,216,59.56Z" fill="#fff"></path><path d="M166.13,149.3l19.22-11.09a2.91,2.91,0,0,1,4.36,2.52v12.48a2.91,2.91,0,0,1-1.43,2.51L169.06,167a2.91,2.91,0,0,1-4.39-2.51V151.82A2.91,2.91,0,0,1,166.13,149.3Z" fill="#f24c4c"></path><polyline points="175.74 162.46 179.22 166.64 182.06 158.64" fill="#f24c4c"></polyline><path d="M177.28,151.71s-2.36-3.81-4.68-.92c-1.33,1.66,1.09,6.67,4.56,7.2,3.14.48,7.55-10.28,3.16-10.4C177.46,147.5,177.28,151.71,177.28,151.71Z" fill="#fff"></path><path d="M170.93,92.69l19.22-11.09a2.91,2.91,0,0,1,4.36,2.52V96.59a2.91,2.91,0,0,1-1.43,2.51l-19.22,11.32a2.91,2.91,0,0,1-4.39-2.51V95.21A2.91,2.91,0,0,1,170.93,92.69Z" fill="#f24c4c"></path><polyline points="180.54 105.84 184.02 110.02 186.86 102.02" fill="#f24c4c"></polyline><path d="M182.08,95.09s-2.36-3.81-4.68-.92c-1.33,1.66,1.09,6.67,4.56,7.2,3.14.48,7.55-10.28,3.16-10.4C182.26,90.89,182.08,95.09,182.08,95.09Z" fill="#fff"></path><path d="M207.06,130.55l19.22-11.09a2.91,2.91,0,0,1,4.36,2.52v12.48a2.91,2.91,0,0,1-1.43,2.51L210,148.28a2.91,2.91,0,0,1-4.39-2.51V133.06A2.91,2.91,0,0,1,207.06,130.55Z" fill="#f24c4c"></path><polyline points="216.67 143.7 220.15 147.88 223 139.88" fill="#f24c4c"></polyline><path d="M218.21,132.95s-2.36-3.81-4.68-.92c-1.33,1.66,1.09,6.67,4.56,7.2,3.14.48,7.55-10.28,3.16-10.4C218.39,128.75,218.21,132.95,218.21,132.95Z" fill="#fff"></path><path d="M203.86,55.43a.67.67,0,0,1,0-.11c0-.12.19-1.56.2-1.68,2.07-.1,3.27.4,5.35.41a7.23,7.23,0,0,1,1.95,3.84c0,1-.12,2.44-1.4,2.34-.2,1-.76,2.22-1.89,2a.53.53,0,0,1-.15-.07c-.08.63-.28,1.26-.88,1.43s-1-.14-1.21-.71c-.22.85-.62,2.15-1.48,2.13-1.17,0-1.19-1.74-.95-3.45A44.51,44.51,0,0,1,203.86,55.43Z" fill="#fbb5ad"></path><path d="M209.66,57.35a7.54,7.54,0,0,1,.43,2.9c0,.31-.49.31-.48,0a7.2,7.2,0,0,0-.41-2.78C209.1,57.18,209.56,57.06,209.66,57.35Z" fill="#56403d"></path><path d="M207.91,58.29l.2,4c0,.31-.46.31-.48,0l-.2-4C207.42,58,207.9,58,207.91,58.29Z" fill="#56403d"></path><path d="M206.14,57.71V63a.24.24,0,0,1-.48,0V57.71A.24.24,0,0,1,206.14,57.71Z" fill="#56403d"></path><path d="M204.08,53.64a9.61,9.61,0,0,0-2.62,6l2.28-1.42Z" fill="#fbb5ad"></path><path d="M183.14,64.93s1.67.3,1.7.27c1.44.91,5.12,2.79,6.65,3.53.9.44,3.16,1.38,2.67,2.75-.27.73-1,.86-1.94.65a.89.89,0,0,1-.4,1.06A1.78,1.78,0,0,1,190,73a1,1,0,0,1-.36.58c-.79.67-2.28-.08-3.14-.48a2.48,2.48,0,0,1,0,.47c0,.5-.5,1-1,.73-2.2-1.17-5.67-5.45-6.67-7.5C180.94,66,181.08,65.8,183.14,64.93Z" fill="#fbb5ad"></path><path d="M184.63,70.94a10.56,10.56,0,0,0,2,2.14c.22.17-.09.48-.31.31a10.94,10.94,0,0,1-2.11-2.23C184.1,70.93,184.47,70.71,184.63,70.94Z" fill="#56403d"></path><path d="M185.94,69.83q1.91,1.51,3.88,2.93c.23.16,0,.54-.22.37q-2-1.45-4-3C185.41,70,185.72,69.66,185.94,69.83Z" fill="#56403d"></path><path d="M188,69.28a27.62,27.62,0,0,0,4.31,2.55c.25.12,0,.49-.22.37a27.62,27.62,0,0,1-4.31-2.55C187.55,69.5,187.77,69.12,188,69.28Z" fill="#56403d"></path><path d="M184.84,65.2s2.11-1.54,5.65.82l-3,1.85" fill="#fbb5ad"></path><path d="M188.91,26.23c2.4-1.1,8.11-4.87,15.31-1.41s14,9.86,6.59,28.72c0,0-2.9,1.48-7.53.08,0,0,1.53-16.5-.78-18.42L178.37,48.63s-1.3,10.4,8.43,15.61l-6.66,6.12c-5.45-.09-17.48-17.41-13.74-29.76s24.18-15,24.18-15" fill="#68e1fd"></path><path d="M188.91,26.23c2.4-1.1,8.11-4.87,15.31-1.41s14,9.86,6.59,28.72c0,0-2.9,1.48-7.53.08,0,0,1.53-16.5-.78-18.42L178.37,48.63s-1.3,10.4,8.43,15.61l-6.66,6.12c-5.45-.09-17.48-17.41-13.74-29.76s24.18-15,24.18-15" fill="#be6b3d"></path><path d="M181.21,25.21c1.64,1.82,4.8,1,6.87.53,2.52-.57,5.41-2.1,5.19-5.11,0-.45.67-.45.7,0,.23,3.13-2.61,5-5.31,5.69-2.4.6-6,1.5-8-.62C180.41,25.37,180.91,24.87,181.21,25.21Z" fill="#009245"></path><path d="M194.65,18.74S194.66,34,189,35c-6.17,1.09-9.64-5.91-9.64-5.91s-.79-13.52,5.34-14.71S194.47,16.78,194.65,18.74Z" fill="#fbb5ad"></path><path d="M189.93,29a1.05,1.05,0,0,0,.42-.07,42.83,42.83,0,0,0-.58-4.25.4.4,0,0,1,.79-.14,42.83,42.83,0,0,1,.6,4.55.42.42,0,0,1-.22.43,2,2,0,0,1-1.08.27C189.34,29.82,189.42,29,189.93,29Z" fill="#56403d"></path><path d="M187.34,29.37a2.24,2.24,0,0,0,2.86,1.19c.33-.11.47.4.14.52a2.76,2.76,0,0,1-3.47-1.44C186.73,29.33,187.19,29.06,187.34,29.37Z" fill="#56403d"></path><path d="M188,27.2a.4.4,0,0,1,0,.8A.4.4,0,0,1,188,27.2Z" fill="#56403d"></path><path d="M193,26.13a.4.4,0,0,1,0,.8A.4.4,0,0,1,193,26.13Z" fill="#56403d"></path><path d="M183.75,27.6s-1.49-5.87-3.13-3.94,2.66,6.16,2.66,6.16" fill="#fbb5ad"></path><path d="M182.25,12.51s-5.48.59-7.07,5,2.5,13,5.44,14.4l-3.56-7.62.18-5.19Z" fill="#5c2e2e"></path><path d="M176.94,27.2a15.42,15.42,0,0,0,3.67,4.67c-.38-1.93-.6-3.75.37-5.42a.43.43,0,0,1,.69-.07,3.38,3.38,0,0,1,1.76.1c.25-.64.46-1.1.55-1.28,1.14,0,2.72-.66,2.87-1.8.18-1.4,1.51.27,4.32-.37,1.62-.37,1.37-1.44.87-2.27a5.07,5.07,0,0,0,2.31,1.09c1.66.29,3.61-.32,4-2.15a3.66,3.66,0,0,0-2.07-3.91,4,4,0,0,0-2.18-.39,6.7,6.7,0,0,0-2.22-2.13A11.65,11.65,0,0,0,183.81,12a2.17,2.17,0,0,0,.1-1.84.41.41,0,0,0-.67-.18A5.94,5.94,0,0,0,182,11.7a2.51,2.51,0,0,0-1.8-.88.4.4,0,0,0-.35.6A4.38,4.38,0,0,0,181,13q-.34.17-.66.35c-2.65,1.56-4.67,3-5.12,6.1A13.77,13.77,0,0,0,176.94,27.2Zm6-15.3c.06-.12.11-.25.15-.38a.4.4,0,0,0,0-.13l.12-.17A1.47,1.47,0,0,1,182.95,11.9Z" fill="#5c2e2e"></path><polygon points="318.86 188.72 245.24 229.73 265.04 240.75 339.97 198.26 350.91 191.06 318.86 188.72" opacity="0.32" fill="url(#linear-gradient-2)"></polygon><path d="M323,174.28a3.88,3.88,0,0,1-1.62-.35l-.25,1.64,26.29.67v-2Z" fill="gray"></path><path d="M321.38,174l-.24,1.58,14.52,8.38v-2C330.76,179.54,326,176.81,321.38,174Z" fill="gray"></path><path d="M336,60.66a4.19,4.19,0,0,1-2.52-.36L316.85,188.8c1,.62,2.06,1.17,3.09,1.75l16.85-130Z" fill="gray"></path><path d="M339.87,60.51a8.38,8.38,0,0,1-1.83,0c-.49,0-1,0-1.47.07l11.25,131.76a26.7,26.7,0,0,1,2.65-1.12l.44-.23.08,0Z" fill="gray"></path><path d="M338,60.52a15.12,15.12,0,0,0-2,.14,5,5,0,0,1-.79,0L334.14,200h0a3.43,3.43,0,0,1,1.76-.14l1,0,.56-.06,1.1-139.2Z" fill="gray"></path><path d="M319.87,62.73V91.52s33.12,1,33.12,0V62.73" fill="#68e1fd"></path><ellipse cx="336.43" cy="62.68" rx="16.56" ry="7.67" fill="#68e1fd"></ellipse><ellipse cx="336.43" cy="62.68" rx="16.56" ry="7.67" opacity="0.19"></ellipse><ellipse cx="336.43" cy="91.95" rx="16.56" ry="7.67" fill="#68e1fd"></ellipse></svg>