<svg xmlns="http://www.w3.org/2000/svg" viewBox="0 0 400 300" width="406" height="306" class="illustration styles_illustrationTablet__1DWOa"><g id="_351_police_outline" data-name="#351_police_outline"><path d="M180.78,166.19h38.43A33.85,33.85,0,0,1,253.07,200v39.64a0,0,0,0,1,0,0H146.93a0,0,0,0,1,0,0V200A33.85,33.85,0,0,1,180.78,166.19Z" fill="#68e1fd"></path><path d="M253.07,240.68H146.93a1,1,0,0,1-1-1V200a34.89,34.89,0,0,1,34.85-34.85h38.44A34.89,34.89,0,0,1,254.07,200v39.64A1,1,0,0,1,253.07,240.68Zm-105.14-2H252.07V200a32.89,32.89,0,0,0-32.85-32.85H180.78A32.89,32.89,0,0,0,147.93,200Z" fill="#093f68"></path><polygon points="202.85 177.22 197.16 177.22 192.2 159.38 207.81 159.38 202.85 177.22" fill="#f56132"></polygon><path d="M202.85,178.22h-5.7a1,1,0,0,1-1-.73l-5-17.85a1,1,0,0,1,.17-.87,1,1,0,0,1,.8-.39h15.61a1,1,0,0,1,.79.39,1,1,0,0,1,.17.87l-5,17.85A1,1,0,0,1,202.85,178.22Zm-4.94-2h4.18l4.4-15.84h-13Z" fill="#093f68"></path><polygon points="206.71 222.55 200 232.52 193.29 222.56 197.16 177.22 202.84 177.22 206.71 222.55" fill="#f56132"></polygon><path d="M200,233.52a1,1,0,0,1-.83-.44l-6.71-10a1,1,0,0,1-.17-.64l3.87-45.33a1,1,0,0,1,1-.92h5.68a1,1,0,0,1,1,.92l3.87,45.32a1.06,1.06,0,0,1-.17.65l-6.71,10A1,1,0,0,1,200,233.52Zm-5.68-11.23,5.68,8.44,5.68-8.45-3.75-44.06h-3.86Z" fill="#093f68"></path><polygon points="184.22 156.96 179.19 166.18 183.77 179.47 198.24 161.15 184.22 156.96" fill="#68e1fd"></polygon><path d="M183.77,180.47l-.17,0a1,1,0,0,1-.77-.66l-4.58-13.28a1,1,0,0,1,.06-.8l5-9.23a1,1,0,0,1,1.17-.48l14,4.19a1,1,0,0,1,.67.66,1,1,0,0,1-.17.92l-14.46,18.32A1,1,0,0,1,183.77,180.47Zm-3.49-14.19,3.84,11.13,12.42-15.72-11.83-3.54Z" fill="#093f68"></path><polygon points="215.78 156.96 220.81 166.18 216.23 179.47 201.76 161.15 215.78 156.96" fill="#68e1fd"></polygon><path d="M216.23,180.47a1,1,0,0,1-.78-.38L201,161.77a1,1,0,0,1-.17-.92,1,1,0,0,1,.67-.66l14-4.19a1,1,0,0,1,1.17.48l5,9.23a1,1,0,0,1,.07.8l-4.58,13.28a1,1,0,0,1-.78.66Zm-12.77-18.78,12.42,15.72,3.84-11.13-4.43-8.13Z" fill="#093f68"></path><path d="M168.08,240.68a1,1,0,0,1-1-1V193.42a1,1,0,0,1,2,0v46.26A1,1,0,0,1,168.08,240.68Z" fill="#093f68"></path><path d="M231.92,240.68a1,1,0,0,1-1-1V193.42a1,1,0,0,1,2,0v46.26A1,1,0,0,1,231.92,240.68Z" fill="#093f68"></path><path d="M236.66,122.4l0-.07a164.76,164.76,0,0,0,3.77-16.57c.64-3.64.8-7.5-.6-10.92-1.82-4.42-6-7.77-9.49-10.88-3.81-3.4-8.08-6.54-12.94-8.25a55.68,55.68,0,0,0-21.89-2.83c-6.36.37-12.76,1.55-18.45,4.41s-10.65,7.52-13,13.45c-1.25,3.18-4.85,9.16-4.56,12.58s4,18,5.16,18Z" fill="#093f68"></path><path d="M236.66,123.4l-6-.09-65.94-1c-.76,0-1.54,0-3.85-8.45a83.84,83.84,0,0,1-2.29-10.46c-.24-2.74,1.59-6.56,3.21-9.93.55-1.16,1.08-2.25,1.41-3.1,2.27-5.8,7-10.77,13.45-14,5.17-2.59,11.34-4.07,18.84-4.51a56.75,56.75,0,0,1,22.28,2.89c4.28,1.5,8.5,4.18,13.28,8.45l1.12,1c3.24,2.85,6.91,6.09,8.62,10.25,1.27,3.09,1.48,6.84.66,11.48a162.12,162.12,0,0,1-3.79,16.67A1.11,1.11,0,0,1,236.66,123.4Zm-71.55-3.09,65.56,1,5.24.08c1.34-4.75,2.51-10,3.55-15.8.76-4.26.58-7.65-.54-10.37-1.53-3.73-4.87-6.67-8.09-9.51l-1.13-1c-4.58-4.08-8.59-6.64-12.61-8.06a54.89,54.89,0,0,0-21.5-2.77c-7.23.42-13.14,1.83-18.07,4.3-6,3-10.39,7.58-12.48,12.92-.36.92-.9,2-1.47,3.23-1.43,3-3.21,6.7-3,8.9C160.83,106.48,163.91,118.31,165.11,120.31Z" fill="#093f68"></path><ellipse cx="170.02" cy="128.9" rx="10.28" ry="14.11" fill="#ffc9b0"></ellipse><path d="M170,144c-6.22,0-11.28-6.78-11.28-15.11s5.06-15.11,11.28-15.11,11.29,6.78,11.29,15.11S176.24,144,170,144Zm0-28.22c-5.12,0-9.28,5.88-9.28,13.11S164.9,142,170,142s9.29-5.88,9.29-13.11S175.14,115.79,170,115.79Z" fill="#093f68"></path><ellipse cx="229.98" cy="128.9" rx="10.28" ry="14.11" fill="#ffc9b0"></ellipse><path d="M230,144c-6.22,0-11.28-6.78-11.28-15.11s5.06-15.11,11.28-15.11,11.28,6.78,11.28,15.11S236.2,144,230,144Zm0-28.22c-5.12,0-9.28,5.88-9.28,13.11S224.86,142,230,142s9.28-5.88,9.28-13.11S235.1,115.79,230,115.79Z" fill="#093f68"></path><path d="M220.2,90.62a11.72,11.72,0,0,1,11.72,11.73v31.7a30.52,30.52,0,0,1-30.51,30.53H198.6a30.52,30.52,0,0,1-30.52-30.53v-31.7A11.73,11.73,0,0,1,179.8,90.62Z" fill="#ffc9b0"></path><path d="M201.41,165.58H198.6a31.56,31.56,0,0,1-31.52-31.53v-31.7A12.74,12.74,0,0,1,179.8,89.62h40.4a12.74,12.74,0,0,1,12.72,12.73v31.7A31.55,31.55,0,0,1,201.41,165.58Zm-21.61-74a10.74,10.74,0,0,0-10.72,10.73v31.7a29.56,29.56,0,0,0,29.52,29.53h2.81a29.56,29.56,0,0,0,29.51-29.53v-31.7A10.74,10.74,0,0,0,220.2,91.62Z" fill="#093f68"></path><path d="M188.93,149.12s10.27,8.19,22.14,1.53" fill="#ffc9b0"></path><path d="M201.45,154.24a23.17,23.17,0,0,1-13.14-4.34,1,1,0,0,1,1.24-1.57c.4.32,9.91,7.68,21,1.45a1,1,0,1,1,1,1.74A20.44,20.44,0,0,1,201.45,154.24Z" fill="#093f68"></path><path d="M189.53,116.08H175.46a1.59,1.59,0,0,1,0-3.18h14.07a1.59,1.59,0,1,1,0,3.18Z" fill="#093f68"></path><path d="M224.54,116.08H210.47a1.59,1.59,0,1,1,0-3.18h14.07a1.59,1.59,0,1,1,0,3.18Z" fill="#093f68"></path><path d="M253.07,81.86c0-11.37-23.76-21.54-53.07-21.54s-53.07,10.17-53.07,21.54c0,3.54,2.3,6.77,6.35,9.55a14.44,14.44,0,0,1,6.27,11.91h81v-.1a14.45,14.45,0,0,1,6.23-11.88C250.81,88.58,253.07,85.37,253.07,81.86Z" fill="#68e1fd"></path><path d="M240.59,104.32h-81a1,1,0,0,1-1-1,13.44,13.44,0,0,0-5.83-11.08c-4.5-3.09-6.79-6.59-6.79-10.38,0-12.22,24.76-22.54,54.07-22.54s54.07,10.32,54.07,22.54c0,3.76-2.25,7.23-6.68,10.3a13.47,13.47,0,0,0-5.8,11.06A1.09,1.09,0,0,1,240.59,104.32Zm-80.07-2h79.1a15.48,15.48,0,0,1,6.63-11.8c3.86-2.68,5.82-5.59,5.82-8.66,0-10.94-24.33-20.54-52.07-20.54s-52.07,9.6-52.07,20.54c0,3.1,2,6,5.92,8.73A15.42,15.42,0,0,1,160.52,102.32Z" fill="#093f68"></path><path d="M200,89.47c-18.6,0-42.27,7-42.27,7a14.41,14.41,0,0,1,1.75,6.88h81v-.1a14.43,14.43,0,0,1,1.71-6.79S218.59,89.47,200,89.47Z" fill="#093f68"></path><path d="M240.54,104.32h-81a1,1,0,0,1-1-1,13.56,13.56,0,0,0-1.62-6.41,1,1,0,0,1,0-.86,1,1,0,0,1,.64-.57c.24-.07,24-7,42.55-7s42.27,6.93,42.51,7a1,1,0,0,1,.6,1.43,13.44,13.44,0,0,0-1.59,6.32A1.09,1.09,0,0,1,240.54,104.32Zm-80.07-2h79.1a15.54,15.54,0,0,1,1.26-5.25c-4.93-1.36-24.89-6.6-40.81-6.6s-35.9,5.24-40.84,6.6A15.63,15.63,0,0,1,160.47,102.32Z" fill="#093f68"></path><path d="M240.52,103.32c0,5.88-18.14,6.85-40.52,6.85s-40.52-1-40.52-6.85a117.93,117.93,0,0,1,81,0Z" fill="#68e1fd"></path><path d="M200,111.17c-30.27,0-41.52-2.13-41.52-7.85a1,1,0,0,1,.63-.93A124.8,124.8,0,0,1,200,95.15a124.8,124.8,0,0,1,40.89,7.24,1,1,0,0,1,.63.93C241.52,109,230.27,111.17,200,111.17ZM160.6,104c2,5.2,28,5.2,39.4,5.2s37.41,0,39.4-5.2A123.55,123.55,0,0,0,200,97.15,123.55,123.55,0,0,0,160.6,104Z" fill="#093f68"></path><path d="M201.71,122s5.27-2.83,13.8-2.83a68,68,0,0,1,11.52,1.2s1,16.16-7.89,17.64-12.83-1.36-14.68-5.3S201.71,122,201.71,122Z" fill="#093f68"></path><path d="M214.79,139.36c-5.52,0-9.28-2.1-11.24-6.27s-2.79-10.71-2.83-11a1,1,0,0,1,.52-1c.22-.12,5.59-3,14.27-3a68.18,68.18,0,0,1,11.72,1.22,1,1,0,0,1,.8.92c0,.69.93,17.08-8.73,18.69A27.39,27.39,0,0,1,214.79,139.36Zm-12-16.81a41.64,41.64,0,0,0,2.55,9.69c2,4.38,6.51,5.93,13.61,4.74,6.85-1.14,7.14-12.69,7.09-15.81a65.21,65.21,0,0,0-10.55-1A32.46,32.46,0,0,0,202.81,122.55Z" fill="#093f68"></path><path d="M198.29,122s-5.27-2.83-13.8-2.83a68,68,0,0,0-11.52,1.2s-1,16.16,7.89,17.64,12.83-1.36,14.68-5.3S198.29,122,198.29,122Z" fill="#093f68"></path><path d="M185.21,139.36a27.39,27.39,0,0,1-4.51-.4c-9.66-1.61-8.77-18-8.73-18.69a1,1,0,0,1,.8-.92,68.18,68.18,0,0,1,11.72-1.22c8.68,0,14,2.83,14.27,3a1,1,0,0,1,.52,1c0,.29-.94,7-2.83,11S190.72,139.36,185.21,139.36Zm-11.27-18.19c-.05,3.12.24,14.67,7.09,15.81,7.1,1.19,11.56-.36,13.61-4.74a41.77,41.77,0,0,0,2.55-9.69,32.46,32.46,0,0,0-12.7-2.42A65.21,65.21,0,0,0,173.94,121.17Z" fill="#093f68"></path><path d="M201.71,123h-3.42a1,1,0,0,1,0-2h3.42a1,1,0,0,1,0,2Z" fill="#093f68"></path><path d="M172.94,123.52a1,1,0,0,1-.82-.42l-4.07-5.71a1,1,0,1,1,1.62-1.16l4.08,5.71a1,1,0,0,1-.23,1.39A1,1,0,0,1,172.94,123.52Z" fill="#093f68"></path><path d="M227.06,123.52a1,1,0,0,1-.58-.19,1,1,0,0,1-.23-1.39l4.08-5.71a1,1,0,0,1,1.62,1.16l-4.07,5.71A1,1,0,0,1,227.06,123.52Z" fill="#093f68"></path><path d="M200.23,131.06s6.67,8.75,2.56,10.56c-2.19,1-5.46-.85-5.46-.85" fill="#ffc9b0"></path><path d="M201.3,142.9a10.43,10.43,0,0,1-4.46-1.25,1,1,0,0,1,1-1.75c.79.43,3.17,1.42,4.57.8a1.09,1.09,0,0,0,.69-.77c.49-1.9-2-6.08-3.64-8.27a1,1,0,0,1,1.6-1.21c.5.66,4.87,6.52,4,10a3.09,3.09,0,0,1-1.81,2.11A4.74,4.74,0,0,1,201.3,142.9Z" fill="#093f68"></path><rect x="151.13" y="171.54" width="19.3" height="6.49" rx="3.25" transform="translate(-74.18 140.21) rotate(-39.02)" fill="#093f68"></rect><path d="M155.81,183.06l-.45,0a4.25,4.25,0,0,1-2.23-7.53l9.94-8.06a4.25,4.25,0,1,1,5.35,6.6h0l-9.95,8.06A4.19,4.19,0,0,1,155.81,183.06Zm9.93-14.55a2.23,2.23,0,0,0-1.41.5l-9.94,8.06a2.25,2.25,0,0,0,1.18,4,2.25,2.25,0,0,0,1.65-.49l9.94-8.06a2.25,2.25,0,0,0,.33-3.16,2.18,2.18,0,0,0-1.51-.82Zm2,4.77h0Z" fill="#093f68"></path><rect x="229.58" y="171.54" width="19.3" height="6.49" rx="3.25" transform="translate(315.05 461.19) rotate(-140.98)" fill="#093f68"></rect><path d="M244.19,183.06a4.19,4.19,0,0,1-2.66-.95l-9.95-8.06h0a4.25,4.25,0,1,1,5.35-6.6l9.94,8.06a4.25,4.25,0,0,1-2.23,7.53ZM232.84,172.5l9.94,8.06a2.25,2.25,0,0,0,1.65.49,2.22,2.22,0,0,0,1.51-.82,2.24,2.24,0,0,0-.33-3.16L235.67,169a2.25,2.25,0,0,0-1.65-.49,2.18,2.18,0,0,0-1.51.82,2.25,2.25,0,0,0,.33,3.16Z" fill="#093f68"></path><path d="M218.7,197.08s-2.26,4.09-9.16,4.51v7.32c0,4.79,6.76,9.71,9.16,12.11,2.39-2.4,9.15-7.32,9.15-12.11v-7.32C221,201.17,218.7,197.08,218.7,197.08Z" fill="#ffbc0e"></path><path d="M218.7,222a1,1,0,0,1-.71-.3c-.44-.43-1-1-1.7-1.56-3.08-2.75-7.75-6.92-7.75-11.25v-7.32a1,1,0,0,1,.94-1c6.21-.38,8.26-3.85,8.34-4a1,1,0,0,1,.88-.5,1,1,0,0,1,.87.51c.09.16,2.14,3.61,8.34,4a1,1,0,0,1,.94,1v7.32c0,4.34-4.67,8.5-7.75,11.25-.67.6-1.26,1.13-1.7,1.56A1,1,0,0,1,218.7,222Zm-8.16-19.51v6.4c0,3.44,4.27,7.24,7.08,9.76l1.08,1,1.07-1c2.81-2.52,7.08-6.32,7.08-9.76v-6.4a12.66,12.66,0,0,1-8.15-3.78A12.72,12.72,0,0,1,210.54,202.51Z" fill="#093f68"></path><polygon points="200 71.34 204.03 79.5 213.04 80.81 206.52 87.17 208.06 96.14 200 91.91 191.94 96.14 193.48 87.17 186.96 80.81 195.97 79.5 200 71.34" fill="#ffbc0e"></polygon><path d="M208.06,97.15a1,1,0,0,1-.47-.12L200,93l-7.59,4A1,1,0,0,1,191,96l1.45-8.46-6.14-6a1,1,0,0,1,.55-1.71l8.5-1.23,3.79-7.69a1,1,0,0,1,1.8,0l3.79,7.69,8.5,1.23a1,1,0,0,1,.55,1.71l-6.14,6L209.05,96a1,1,0,0,1-1,1.17ZM200,90.91a1.12,1.12,0,0,1,.47.11l6.26,3.3-1.2-7a1,1,0,0,1,.29-.89l5.07-4.94-7-1a1,1,0,0,1-.76-.54L200,73.6,196.87,80a1,1,0,0,1-.76.54l-7,1,5.07,4.94a1,1,0,0,1,.29.89l-1.2,7,6.26-3.3A1.12,1.12,0,0,1,200,90.91Z" fill="#093f68"></path><path d="M188.71,205.27h-12.8a1,1,0,0,1,0-2h12.8a1,1,0,0,1,0,2Z" fill="#093f68"></path></g></svg>