<svg id="Layer_1" data-name="Layer 1" xmlns="http://www.w3.org/2000/svg" viewBox="0 0 400 300" width="406" height="306" class="illustration styles_illustrationTablet__1DWOa"><title>_</title><path d="M166.33,59.65c-59.76-3.4-103.81,61.05-81.74,121.16a79.54,79.54,0,0,0,17.3,28.08c49,50.77,153.86,33.61,186.44,7.15S334.27,109.41,305,84.15C268.64,52.73,220.58,62.74,166.33,59.65Z" fill="#e6e6e6" opacity="0.45"></path><path d="M278.05,181.39s-12.34-58.09-43.41-58.09-47.6,91.32,28,101.25Z" fill="#f4a28c"></path><path d="M278.05,181.39s-12.34-58.09-43.41-58.09-47.6,91.32,28,101.25Z" opacity="0.1"></path><rect x="153.21" y="37.59" width="89.93" height="161.29" fill="#24285b"></rect><rect x="160.65" y="55.98" width="74.44" height="113.51" fill="#fff"></rect><circle cx="198.45" cy="184.02" r="8.8" fill="#fff" opacity="0.2"></circle><rect x="190.57" y="43.89" width="25.21" height="3.68" fill="#fff" opacity="0.2"></rect><circle cx="181.43" cy="46.13" r="4.11" fill="#fff" opacity="0.2"></circle><rect x="166.72" y="123.36" width="62.3" height="46.12" fill="#68e1fd"></rect><rect x="189.07" y="143.23" width="6.2" height="9.35" transform="translate(-1.41 1.85) rotate(-0.55)" fill="#fff" opacity="0.49"></rect><path d="M195.24,143.91s4-1.92,5.19-5.45a1.4,1.4,0,0,1,2.59-.08,3.81,3.81,0,0,1,.12,2.51c-.88,3.57,3,1.39,3.89,2.91s3.86,9.93-11.72,8Z" fill="#fff"></path><rect x="166.72" y="106.53" width="12.09" height="11.13" fill="#e6e6e6"></rect><rect x="184.84" y="106.53" width="28.6" height="3.13" fill="#e6e6e6"></rect><rect x="184.84" y="112.96" width="39.15" height="3.13" fill="#e6e6e6"></rect><rect x="160.65" y="55.98" width="74.44" height="12.96" fill="#68e1fd"></rect><rect x="168.77" y="59.52" width="54.21" height="5.87" rx="2.94" fill="#24285b"></rect><circle cx="230.05" cy="62.46" r="2.06" fill="#fff"></circle><circle cx="172.25" cy="76.36" r="4.46" fill="#e6e6e6"></circle><circle cx="185.06" cy="76.36" r="4.46" fill="#e6e6e6"></circle><circle cx="197.87" cy="76.36" r="4.46" fill="#e6e6e6"></circle><circle cx="210.68" cy="76.36" r="4.46" fill="#e6e6e6"></circle><circle cx="223.48" cy="76.36" r="4.46" fill="#e6e6e6"></circle><rect x="160.65" y="83.79" width="74.44" height="1.02" fill="#e6e6e6"></rect><rect x="160.65" y="99.25" width="74.44" height="1.02" fill="#e6e6e6"></rect><circle cx="175.55" cy="73.14" r="1.78" fill="#ffd200"></circle><circle cx="200.91" cy="73.14" r="1.78" fill="#ffd200"></circle><circle cx="173.05" cy="91.85" r="4.28" fill="#ffd200"></circle><rect x="182.95" y="88.6" width="46.53" height="6.51" rx="3.26" fill="#e6e6e6"></rect><path d="M253.72,159.82s-24-24.53-34.34-22.35c-8.55,1.8-8.56,18.81,10.06,33a33,33,0,0,1,13.1,24.09c.53,7.92,3.14,17.34,11.18,24.45,16.89,15,29.43,1.93,27.79-18.26S278.79,174.53,253.72,159.82Z" fill="#f4a28c"></path><polygon points="239.52 262.41 237.95 223.01 283.73 209.13 294.37 262.41 239.52 262.41" fill="#68e1fd"></polygon><polygon points="239.52 262.41 237.95 223.01 259.8 216.38 263.41 262.41 239.52 262.41" opacity="0.1"></polygon><path d="M201.79,192.55a76.94,76.94,0,0,1-6.87,10.78c-7.62,10.51-18.24,18-28.83,25.29a40.37,40.37,0,0,0-7,5.54C155,238.67,154.54,246.27,153,252c0,0-48.05-1.14-47.15-2.57,4.36-6.93,6.17-17.36,5.85-25.44-.4-10-2-18.95,1.48-28.77C117,184.62,125.6,176,137,175.33c2.71-.16,5.34-1.05,8.07-1.22,3.95-.25,8.29,0,11.39-2.41A14.57,14.57,0,0,0,160,167c3.81-7.09,6.81-14.61,11-21.52,2.45-4.06,10.3-12.49,14.14-4.76,1.27,2.56.89,5.6.41,8.41a179.42,179.42,0,0,1-6.21,25.26c-.82,2.56-5.08,11.57-3.32,14,2.08,2.84,7.77-2.62,9.63-3.78,3.93-2.44,8.16-6.63,12.71-7.75,3-.73,5.79,2.29,6.07,5.33C204.66,185.46,203.51,189.08,201.79,192.55Z" fill="#f4a28c"></path><polygon points="159.35 236.87 155.33 257.75 98.45 257.75 109.94 232.4 138.8 235.01 159.35 236.87" fill="#68e1fd"></polygon><path d="M159.35,236.87l-4,20.88H130.58c2.95-8.18,6-16.61,8.22-22.74Z" opacity="0.1"></path><path d="M147.58,114.11V85.49A5.57,5.57,0,0,0,142,79.92H98.52A5.57,5.57,0,0,0,93,85.49v28.62a5.57,5.57,0,0,0,5.57,5.57h35l12.91,8.38-4.08-8.39A5.58,5.58,0,0,0,147.58,114.11Z" fill="#68e1fd"></path><path d="M127.16,95.26h-3.41c-.11,0-.22,0-.32,0s0-.06,0-.09V93a1.5,1.5,0,0,1,0-.42,1.08,1.08,0,0,1,1.07-1.27s0,0,0,0l.14,0c.82,0,1.64,0,2.47,0,.19,0,.24,0,.24-.24,0-1.32,0-2.63,0-4,0-.18-.06-.23-.23-.23h-3.6a5.17,5.17,0,0,0-4.71,2.29,7.65,7.65,0,0,0-.78,3.62v2.29a.42.42,0,0,0,0,.16s-.08,0-.13,0h-2.28c-.15,0-.21,0-.21.21,0,1.33,0,2.67,0,4,0,.08,0,.17.07.21s.15,0,.23,0c.7,0,1.41,0,2.11,0,.13,0,.2,0,.19.18v12.36c0,.07,0,.14,0,.2h0v0h5.27v0c0-.05,0-.1,0-.14V99.84c0-.06,0-.13,0-.17a.17.17,0,0,0,.12,0q1.6,0,3.21,0s.09,0,.12,0,0-.12.06-.19c.14-1.32.29-2.65.43-4C127.41,95.26,127.41,95.26,127.16,95.26Z" fill="#fefefe"></path></svg>