<svg id="Layer_1" data-name="Layer 1" xmlns="http://www.w3.org/2000/svg" xmlns:xlink="http://www.w3.org/1999/xlink" viewBox="0 0 328.84 274.51" width="406" height="306" class="illustration styles_illustrationTablet__1DWOa"><defs><linearGradient id="linear-gradient" x1="258.42" y1="183.11" x2="328.88" y2="183.11" gradientUnits="userSpaceOnUse"><stop offset="0.01"></stop><stop offset="0.08" stop-opacity="0.69"></stop><stop offset="0.21" stop-opacity="0.32"></stop><stop offset="1" stop-opacity="0"></stop></linearGradient><linearGradient id="linear-gradient-2" x1="215.19" y1="-27.24" x2="215.19" y2="648.5" xlink:href="#linear-gradient"></linearGradient><linearGradient id="linear-gradient-3" x1="133.16" y1="182.62" x2="215.38" y2="277.22" gradientUnits="userSpaceOnUse"><stop offset="0.01"></stop><stop offset="0.13" stop-opacity="0.69"></stop><stop offset="0.25" stop-opacity="0.32"></stop><stop offset="1" stop-opacity="0"></stop></linearGradient><linearGradient id="linear-gradient-4" x1="41.45" y1="143.35" x2="294.85" y2="311.72" xlink:href="#linear-gradient-3"></linearGradient><linearGradient id="linear-gradient-5" x1="98.82" y1="93.78" x2="352.23" y2="262.15" xlink:href="#linear-gradient-3"></linearGradient><linearGradient id="linear-gradient-6" x1="117.05" y1="63.43" x2="236.43" y2="285.3" xlink:href="#linear-gradient-3"></linearGradient><linearGradient id="linear-gradient-7" x1="124.54" y1="133.82" x2="377.94" y2="302.19" xlink:href="#linear-gradient-3"></linearGradient></defs><title>3</title><path d="M166.27,49.52c-15.45,9.76-25.86,25.65-35.11,41.42-6.83,11.63-13.35,23.58-21.92,34.06-3.7,4.53-8.13,10.27-13.3,13s-11.42,3.78-16.74,6.81c-21,11.94-36,34.65-37.18,58.94a111.87,111.87,0,0,0,1.7,23.09c2.53,16.06,6.77,32.38,16.64,45.31,12.38,16.22,30.87,22.61,47.42,33.08,17.34,11,41.18,10,61,7.76,23-2.65,45.67-8.42,68.81-8.63,23.39-.22,47.94,5.07,69.44-4.15,8.43-3.62,15.8-9.28,23.07-14.88,12.9-9.94,26.23-20.39,33.37-35,4.28-8.76,6.06-18.54,6.85-28.25,3.05-37.36-9.46-77.12-38.06-101.34C321.5,111.6,308.8,104.85,298.74,95c-11.79-11.59-19.47-27-32-37.75C244.43,38.13,191.15,33.8,166.27,49.52Z" transform="translate(-41.93 -39.93)" fill="#68e1fd" opacity="0.18" style="isolation: isolate;"></path><path d="M148.45,141.54c-.34,2.87-3.75,7.4-3.75,7.4-1.66-1.72-1-3.1-1-3.1,1.22-.55,1.14-4.23.14-4.84-1.25-.76-1.87.11-2.17.91a6.22,6.22,0,0,1-4.21-2.63c-.56-.83-.45-4.14-3.93-3.58s-6.94,3.93-6.94,3.94c-.17.16-1-1.6-1-1.72a4.87,4.87,0,0,1,.37-3c.56-1,1.92-1.61,2.83-2.21,1.43-.92,2.87-1.8,4.35-2.64a12.74,12.74,0,0,1,4.78-1.89c3.2-.36,6.31,1.66,8.43,3.89s3,5.7,6.59,6.26a1.84,1.84,0,0,1,1,.31,1.64,1.64,0,0,1,.37,1.29l0,2.77a2,2,0,0,0,.33,1.42c.43.49,1.2.45,1.81.69a3.21,3.21,0,0,1,1.66,2.94,18.26,18.26,0,0,0,.16,3.55c.2.78.62,1.47.86,2.23a8.72,8.72,0,0,1-.4,5.42,17.66,17.66,0,0,1-4.37,7.15,11.68,11.68,0,0,1-7.57,3.33,6.24,6.24,0,0,0-3.17.48,7.84,7.84,0,0,0-1.44,1.49A9.32,9.32,0,0,1,136,174a7.54,7.54,0,0,1-5.14-1c-1.46-1-2.19-3.22-1.16-4.68.28-.39.69-.82.54-1.28a1.6,1.6,0,0,0-.47-.57,3,3,0,0,1,.45-4.52,3.52,3.52,0,0,1,.27-4.95,9,9,0,0,0-2.15-1.47,2.06,2.06,0,0,1-1.1-2.17,10,10,0,0,1,.7-1.12c.66-1.24-.58-4.24-1.09-5.44-1-2.32-2.32-3.79-1.62-6.55.91-3.57,4.14-6.14,7.61-7.38,2.78-1,9.29-2.82,11.79-1.15S148.78,138.65,148.45,141.54Z" transform="translate(-41.93 -39.93)" fill="#473f47"></path><path d="M136,160.41a3.73,3.73,0,0,1,.64-.56,32.82,32.82,0,0,1,4-1.94c1.78-.91,3.54-1.86,5.25-2.89,3.26-2,8.51-5.41,13.53-3.48s6.48,7.91,7.35,12.53c.43,2.31.15,4.7.57,6.94.49,2.67,2.63,5.59,4.16,7.77a6.65,6.65,0,0,0,1.26,1.44c1,.82,2.53,1,3.48,2a3.89,3.89,0,0,1,.66,3.92,11.49,11.49,0,0,1-2.22,3.53c-1.09,1.32-2.18,2.65-3.37,3.89a37,37,0,0,1-13.72,8.86,1.76,1.76,0,0,1-1.14.15c-.52-.16-.77-.72-1-1.22a36.42,36.42,0,0,0-6.72-10.62c-2.55-2.79-5.82-4.19-8.29-7.1-1.47-1.75-3.87-4.69-4.1-7,0-.36.27-.83.13-1.15s-1.13-.84-1.52-1.11a27.28,27.28,0,0,1-3.51-3,1.24,1.24,0,0,1-.38-.61,1.15,1.15,0,0,1,.13-.6c.74-1.87,1.49-3.74,2.38-5.54A17.65,17.65,0,0,1,136,160.41Z" transform="translate(-41.93 -39.93)" fill="#fff"></path><path d="M142.88,145.62c.54,2.58-.14,8.09-3.95,9a4.86,4.86,0,0,1,2.29,4.67s2.62,2.13,7.57-6c0,0-2,1-3.79-3.37a9.84,9.84,0,0,1-.75-4.66A.81.81,0,0,1,142.88,145.62Z" transform="translate(-41.93 -39.93)" fill="#9f685d"></path><path d="M143.17,146.91s2.23,7.64-.62,8.88-5-3-5-3Z" transform="translate(-41.93 -39.93)" fill="#77433c"></path><path d="M126.67,134.36s-4.24,2.74-2,9.83,8.58,3.41,8.58,3.41l-2.4-13.21Z" transform="translate(-41.93 -39.93)" fill="#473f47"></path><path d="M141.46,153.66c-3.79,2.58-8.3.24-11.49-4.35-.34-.5-.67-1-1-1.59a23.27,23.27,0,0,1-2.12-5c-2.47-8.42,9.8-11.43,9.8-11.43C147.08,130.33,148,149.19,141.46,153.66Z" transform="translate(-41.93 -39.93)" fill="#9f685d"></path><path d="M147.48,149.15l.76-2.33a14.31,14.31,0,0,0,.79-3.27" transform="translate(-41.93 -39.93)" fill="#473f47"></path><path d="M163.82,152.58a25,25,0,0,1,3.41,3.84l1.42,1.84a2.47,2.47,0,0,1,.64,1.29c.07.89-1.43,1.36-2,1.84L164,164q-3.22,2.55-6.5,5.06a16.14,16.14,0,0,1-2-3.67c-.42-1.25-.53-2.6-.89-3.88-.29-1.05-.74-2-1-3.09a9.88,9.88,0,0,1,.53-6.6c1.46-3.23,7.61-.89,9.49.66Z" transform="translate(-41.93 -39.93)" fill="#fff" style="isolation: isolate;"></path><path d="M299.72,160.17l-.21-.13c-1.48-.81-3-1.45-4.53-2.21-1.78-.91-3.54-1.85-5.25-2.89-3.26-2-8.51-5.41-13.53-3.48s-6.48,7.92-7.35,12.53c-.43,2.32-.15,4.7-.57,6.94-.5,2.67-2.63,5.59-4.16,7.77a6.21,6.21,0,0,1-1.26,1.44c-1.05.82-2.53,1-3.48,2-2.27,2.27,0,5.75,1.72,7.51a34.06,34.06,0,0,1,5.25,6.34c3.77,6,7.62,12.32,8.51,19.38l7.72-18.51a37.3,37.3,0,0,1,4.05-7.87,30,30,0,0,1,13.2-9.69c4.95-1.63,10.22,1.19,15.17-.48,4.24-1.43,6.7-5.74,8.75-9.73,2.52-4.89,5.05-10,5.13-15.52,0-.3-4.57-1.22-5-1.32-.65-.14-2-.7-2.66-.52s-.59.59-.73,1.35c-.57,3.29-2.23,6.25-3.85,9.12l-2.38,4.21a1.37,1.37,0,0,1-.39.49,1.24,1.24,0,0,1-.6.15,13.68,13.68,0,0,1-10.57-3.93A18,18,0,0,0,299.72,160.17Z" transform="translate(-41.93 -39.93)" fill="#68e1fd"></path><path d="M299.72,160.17l-.21-.13c-1.48-.81-3-1.45-4.53-2.21-1.78-.91-3.54-1.85-5.25-2.89-3.26-2-8.51-5.41-13.53-3.48s-6.48,7.92-7.35,12.53c-.43,2.32-.15,4.7-.57,6.94-.5,2.67-2.63,5.59-4.16,7.77a6.21,6.21,0,0,1-1.26,1.44c-1.05.82-2.53,1-3.48,2-2.27,2.27,0,5.75,1.72,7.51a34.06,34.06,0,0,1,5.25,6.34c3.77,6,7.62,12.32,8.51,19.38l7.72-18.51a37.3,37.3,0,0,1,4.05-7.87,30,30,0,0,1,13.2-9.69c4.95-1.63,10.22,1.19,15.17-.48,4.24-1.43,6.7-5.74,8.75-9.73,2.52-4.89,5.05-10,5.13-15.52,0-.3-4.57-1.22-5-1.32-.65-.14-2-.7-2.66-.52s-.59.59-.73,1.35c-.57,3.29-2.23,6.25-3.85,9.12l-2.38,4.21a1.37,1.37,0,0,1-.39.49,1.24,1.24,0,0,1-.6.15,13.68,13.68,0,0,1-10.57-3.93A18,18,0,0,0,299.72,160.17Z" transform="translate(-41.93 -39.93)" fill="url(#linear-gradient)"></path><path d="M292.78,145.54c-.54,2.58.14,8.09,4,9.05a4.88,4.88,0,0,0-2.29,4.67s-2.62,2.13-7.57-6c0,0,2.05.94,3.79-3.37a9.89,9.89,0,0,0,.75-4.67A.81.81,0,0,0,292.78,145.54Z" transform="translate(-41.93 -39.93)" fill="#fab8ac"></path><path d="M292.49,146.83s-2.23,7.65.62,8.89,5-3,5-3Z" transform="translate(-41.93 -39.93)" fill="#db9e94"></path><path d="M294.2,153.59c3.79,2.57,8.3.23,11.49-4.36.34-.5.67-1,1-1.59a23.05,23.05,0,0,0,2.12-5c2.47-8.42-9.8-11.43-9.8-11.43C288.58,130.25,287.62,149.11,294.2,153.59Z" transform="translate(-41.93 -39.93)" fill="#fab8ac"></path><rect x="111.22" y="22.12" width="124.03" height="239.82" rx="17.83" fill="#68e1fd"></rect><rect x="113.67" y="25.14" width="119.13" height="233.39" rx="17.24" fill="#473f47"></rect><path d="M271.49,84.26V276.87a16.47,16.47,0,0,1-16.63,16.3H175.55a16.71,16.71,0,0,1-8.27-2.16,16.22,16.22,0,0,1-8.38-14.14V84.26A16.48,16.48,0,0,1,175.55,68H189v2.37a7.89,7.89,0,0,0,5,7.17,8.32,8.32,0,0,0,3.05.58h36.84a8,8,0,0,0,8-7.88V68h13a16.77,16.77,0,0,1,11.49,4.52A16.1,16.1,0,0,1,271.49,84.26Z" transform="translate(-41.93 -39.93)" fill="#fff"></path><rect x="119.77" y="176.49" width="107.27" height="65.49" fill="#68e1fd" opacity="0.41" style="isolation: isolate;"></rect><circle cx="134.45" cy="192.63" r="8.54" fill="#68e1fd"></circle><rect x="150.5" y="185.13" width="63.35" height="4.5" rx="2.25" fill="#68e1fd"></rect><rect x="150.5" y="195.26" width="37.9" height="4.5" rx="2.25" fill="#68e1fd"></rect><rect x="119.77" y="102.14" width="107.27" height="70.03" fill="#68e1fd" opacity="0.41" style="isolation: isolate;"></rect><circle cx="134.45" cy="118.28" r="8.54" fill="#68e1fd"></circle><rect x="150.5" y="110.78" width="63.35" height="4.5" rx="2.25" fill="#68e1fd"></rect><rect x="150.5" y="120.91" width="37.9" height="4.5" rx="2.25" fill="#68e1fd"></rect><path d="M271.49,84.26V100H158.9V84.26A16.48,16.48,0,0,1,175.55,68H189v2.37a7.89,7.89,0,0,0,5,7.17,8.32,8.32,0,0,0,3.05.58h36.84a8,8,0,0,0,8-7.88V68h13a16.77,16.77,0,0,1,11.49,4.52A16.1,16.1,0,0,1,271.49,84.26Z" transform="translate(-41.93 -39.93)" fill="#68e1fd"></path><path d="M271.49,84.26V100H158.9V84.26A16.48,16.48,0,0,1,175.55,68H189v2.37a7.89,7.89,0,0,0,5,7.17,8.32,8.32,0,0,0,3.05.58h36.84a8,8,0,0,0,8-7.88V68h13a16.77,16.77,0,0,1,11.49,4.52A16.1,16.1,0,0,1,271.49,84.26Z" transform="translate(-41.93 -39.93)" fill="url(#linear-gradient-2)"></path><rect x="124.31" y="47.71" width="52.37" height="9.29" fill="#68e1fd"></rect><rect x="195.1" y="50.23" width="24.39" height="3.68" rx="1.84" fill="#68e1fd"></rect><circle cx="187.34" cy="52.07" r="5.49" fill="#68e1fd"></circle><rect x="119.77" y="66.85" width="107.27" height="30.97" fill="#68e1fd" opacity="0.41" style="isolation: isolate;"></rect><circle cx="134.45" cy="83" r="8.54" fill="#68e1fd"></circle><rect x="150.5" y="75.49" width="63.35" height="4.5" rx="2.25" fill="#68e1fd"></rect><rect x="150.5" y="85.62" width="37.9" height="4.5" rx="2.25" fill="#68e1fd"></rect><path d="M153.15,238.55s27.35,3.37,29.23-21.4-24.59-23.46-24.59-23.46S153.15,229.16,153.15,238.55Z" transform="translate(-41.93 -39.93)" fill="url(#linear-gradient-3)"></path><circle cx="154.3" cy="218.33" r="20.87" fill="url(#linear-gradient-4)"></circle><circle cx="211.67" cy="168.76" r="20.87" fill="url(#linear-gradient-5)"></circle><rect x="141.96" y="127.86" width="43.55" height="44.67" rx="3.7" fill="url(#linear-gradient-6)"></rect><circle cx="237.39" cy="208.8" r="20.87" fill="url(#linear-gradient-7)"></circle><circle cx="113.55" cy="171.54" r="23.37" fill="#68e1fd"></circle><path d="M144,213.92a2.11,2.11,0,0,0,.22.74,3.17,3.17,0,0,0,.75.84c3.47,3,7.2,5.92,11.6,7.24a3.36,3.36,0,0,0,1.43.2,1.3,1.3,0,0,0,1.1-.84,4.15,4.15,0,0,1,.14-.61c.33-.7,1.51-.37,2.07-.92a1.29,1.29,0,0,0,.15-1.38c-.18-.45-.49-.85-.66-1.31a3.89,3.89,0,0,0,1.78-.69,1.56,1.56,0,0,0,.57-1.7c-.18-.46-.68-.88-.53-1.36s.69-.55,1.09-.77a2.09,2.09,0,0,0,.58-2.78,4.46,4.46,0,0,0-2.49-1.83,23.19,23.19,0,0,1-3-1c-.23-.12-.48-.27-.54-.52s.17-.66.41-.93a7.44,7.44,0,0,0,2.06-6.41,2.26,2.26,0,0,0-1.61-1.91,2,2,0,0,0-1.57.63,7.63,7.63,0,0,0-1,1.43c-1.86,3-4.77,5.82-8.51,5.71-.64,0-1.09-.33-1.66,0a3.09,3.09,0,0,0-1,1.41,14.2,14.2,0,0,0-1.47,6.42A2.07,2.07,0,0,0,144,213.92Z" transform="translate(-41.93 -39.93)" fill="#fff"></path><circle cx="244.19" cy="208.8" r="23.37" fill="#68e1fd"></circle><path d="M274.65,251.19a2.43,2.43,0,0,0,.22.74,3.19,3.19,0,0,0,.76.84c3.46,3,7.2,5.91,11.6,7.24a3.33,3.33,0,0,0,1.43.19,1.28,1.28,0,0,0,1.09-.83,6,6,0,0,1,.14-.61c.33-.71,1.51-.38,2.07-.92a1.29,1.29,0,0,0,.15-1.38c-.18-.46-.49-.85-.65-1.32a4,4,0,0,0,1.77-.68,1.55,1.55,0,0,0,.57-1.7c-.18-.47-.67-.88-.53-1.37s.69-.54,1.09-.77a2.09,2.09,0,0,0,.58-2.78,4.4,4.4,0,0,0-2.49-1.82,23.74,23.74,0,0,1-3-1,1,1,0,0,1-.54-.53c-.09-.34.18-.66.41-.92a7.5,7.5,0,0,0,2.07-6.42c-.2-.86-.74-1.78-1.62-1.9a1.92,1.92,0,0,0-1.56.62,7.87,7.87,0,0,0-1,1.43c-1.86,3-4.77,5.82-8.51,5.71-.64,0-1.08-.32-1.66,0a3.07,3.07,0,0,0-1,1.41,14.18,14.18,0,0,0-1.48,6.42Z" transform="translate(-41.93 -39.93)" fill="#fff"></path><circle cx="151.33" cy="214.66" r="20.87" fill="#68e1fd"></circle><path d="M192.62,251.17s-7.63-9.25-12.43-.49,15.26,16.56,15.26,16.56,11.28-10.4,10.12-16.67S194,241.84,192.62,251.17Z" transform="translate(-41.93 -39.93)" fill="#fff"></path><circle cx="212.38" cy="164.56" r="20.87" fill="#68e1fd"></circle><path d="M253.67,201.08s-7.63-9.25-12.43-.49,15.25,16.56,15.25,16.56,11.29-10.4,10.13-16.67S255.07,191.75,253.67,201.08Z" transform="translate(-41.93 -39.93)" fill="#fff"></path><g id="sBnyiT"><path d="M182.21,206.75V168.37a.48.48,0,0,0,.08-.16,3,3,0,0,1,3.07-2.49h37.49a3,3,0,0,1,3.06,3.06v37.56a3,3,0,0,1-2.26,2.95l-.39.13h-11c0-.12,0-.24,0-.36V190.55h.32c1.52,0,3,0,4.55,0,.26,0,.37-.08.39-.33s.05-.63.08-.94c.19-1.66.37-3.33.56-5,0-.21,0-.31-.25-.31h-5.4c-.14,0-.26,0-.26-.18,0-1.24,0-2.47.06-3.71a2.87,2.87,0,0,1,.23-1.08,1.54,1.54,0,0,1,1.5-.79c1.22-.05,2.43,0,3.64-.05.48,0,.48,0,.48-.47V172c0-.41,0-.43-.43-.43h-4.58a13.32,13.32,0,0,0-4,.53,6.18,6.18,0,0,0-3.58,2.76,9.34,9.34,0,0,0-1.14,4.44c-.06,1.45,0,2.91,0,4.37,0,.25-.07.3-.31.29h-3.22c-.28,0-.39.08-.39.38,0,2,0,3.89,0,5.83,0,.28.08.38.36.37,1,0,1.89,0,2.83,0h.71c0,.11,0,.2,0,.29v17.79c0,.26,0,.53,0,.79H184.89l-.25-.09a3,3,0,0,1-2.2-1.88C182.35,207.22,182.29,207,182.21,206.75Z" transform="translate(-41.93 -39.93)" fill="#68e1fd"></path><path d="M204.44,209.42c0-.26,0-.53,0-.79V190.84c0-.09,0-.18,0-.29h-.71c-.94,0-1.88,0-2.83,0-.28,0-.36-.09-.36-.37,0-1.94,0-3.88,0-5.83,0-.3.11-.38.39-.38h3.22c.24,0,.31,0,.31-.29,0-1.46,0-2.92,0-4.37a9.34,9.34,0,0,1,1.14-4.44,6.18,6.18,0,0,1,3.58-2.76,13.32,13.32,0,0,1,4-.53h4.58c.41,0,.43,0,.43.43v5.68c0,.47,0,.47-.48.47-1.21,0-2.42,0-3.64.05a1.54,1.54,0,0,0-1.5.79,2.87,2.87,0,0,0-.23,1.08c0,1.24,0,2.47-.06,3.71,0,.21.12.18.26.18H218c.22,0,.28.1.25.31-.19,1.66-.37,3.33-.56,5,0,.31-.07.63-.08.94s-.13.34-.39.33c-1.51,0-3,0-4.55,0h-.32v18.51c0,.12,0,.24,0,.36Z" transform="translate(-41.93 -39.93)" fill="#fff"></path></g><path d="M128.29,138.88a3.54,3.54,0,0,0,.7.38,17,17,0,0,0,8.06,1,5.23,5.23,0,0,0,1.92-.44,2.2,2.2,0,0,0,1.25-1.45c.09-.44,0-.91.09-1.35,1.56,1,3.25,2.27,3.7,4.11a2.61,2.61,0,0,1-.24-1,.84.84,0,0,1,.54-.78c.51-.14,1,.43,1.07.95.29,1.33-.42,2.56-.56,3.85a40.89,40.89,0,0,0-.21,4.15,3.35,3.35,0,0,0,.22,1.44,3.57,3.57,0,0,0,.87,1.07c.3-1,.61-1.89.86-2.84a12.27,12.27,0,0,0,.81-2.54,18.2,18.2,0,0,0,1-3.68,4.66,4.66,0,0,0-.41-2.9,16.94,16.94,0,0,1-1.47-2.59,17.71,17.71,0,0,0-1.44-3.45,5.8,5.8,0,0,0-2.72-2.49,7,7,0,0,0-2.13-.42,16.13,16.13,0,0,0-7.34,1.07,12.64,12.64,0,0,0-4.68,3.29c-.93,1.06-1.36,1.88-.8,3.28A2.86,2.86,0,0,0,128.29,138.88Z" transform="translate(-41.93 -39.93)" fill="#473f47"></path><path d="M129.67,151.88a4.89,4.89,0,0,0,2.33.43.22.22,0,0,0,.16-.05.16.16,0,0,0,0-.12,1.21,1.21,0,0,0-.22-.54c-.62-.94-1.77-3.67-3.31-3.09a1.27,1.27,0,0,0-.6,1.76C128.39,151.12,129.09,151.3,129.67,151.88Z" transform="translate(-41.93 -39.93)" fill="#9f685d"></path><path d="M128.75,183.63a4.75,4.75,0,0,0,.53,3.18,4.61,4.61,0,0,0,3.42,1.47,26.14,26.14,0,0,0,13.69-2.35c3.05-1.43,6-3.5,9.32-3.69a5.65,5.65,0,0,0,1.79-.24,3.1,3.1,0,0,0,1.59-1.84,5.72,5.72,0,0,0-.55-5.13,3.62,3.62,0,0,0-3.65-1.78c-1.69.41-2.47,2.31-3.63,3.61-1.71,1.91-4.4,2.59-7,2.82s-5.17.12-7.62.87L138.1,178a1.56,1.56,0,0,0,.27-.9c-.07-.51-.61-.8-1.08-1a18.79,18.79,0,0,1-3.76-2.41c-1.37-1.12-1.88-1.83-2.68.16A34.19,34.19,0,0,0,128.75,183.63Z" transform="translate(-41.93 -39.93)" fill="#9f685d"></path><path d="M322.16,153.47a3.33,3.33,0,0,0,2.19,1.17,6,6,0,0,0,1.64-.14,4.14,4.14,0,0,0,1-.28,4.19,4.19,0,0,0,1.27-1.07c.79-.89,1.54-1.82,2.24-2.78a1.43,1.43,0,0,0,.32-.71.31.31,0,0,0,0-.21.4.4,0,0,0-.35-.2c-.72,0-1.16.94-1.88,1,.43-.68,1-1.26,1.48-1.91a3.36,3.36,0,0,0,.76-2.23.25.25,0,0,0-.05-.15c-.09-.13-.29,0-.41.05-.86.68-1.42,1.77-2.44,2.15a8.88,8.88,0,0,1,.79-1.86,5.77,5.77,0,0,0,.48-2.81c0-.1,0-.23-.14-.25s-.11,0-.16.06a5.49,5.49,0,0,0-1.33,2,6.28,6.28,0,0,1-1.42,1.75,18.45,18.45,0,0,0,.17-2.78c0-.32-.09-.72-.4-.77-.48-.08-.78.78-.88,1.12a10.39,10.39,0,0,0-.36,2c0,.29-.06.58-.11.87a5.27,5.27,0,0,1-1.61,3,7.2,7.2,0,0,1-.66-1.65,1.68,1.68,0,0,0-.35-.61.55.55,0,0,0-.65-.08.63.63,0,0,0-.21.39,4.72,4.72,0,0,0,.33,2.51A5.52,5.52,0,0,0,322.16,153.47Z" transform="translate(-41.93 -39.93)" fill="#fab8ac"></path><path d="M302.27,127.65a22,22,0,0,0-4.57.43,10,10,0,0,0-3.28.92,7.44,7.44,0,0,0-2.22,2,12.49,12.49,0,0,0-2.26,11c-.23-1.8,1.11-3.38,2.36-4.7l2.17-2.29a3.53,3.53,0,0,1,.68-.6,2.64,2.64,0,0,1,3.07.76c.8.81,1.31,1.87,2.13,2.66,1.76,1.73,4.48,1.86,6.78,2.76a1.67,1.67,0,0,1,.9.63,1.87,1.87,0,0,1,.05,1.32l-.87,4.11a22.23,22.23,0,0,0,5.49-7.92c1-2.37-1.07-5.51-2.66-7.31A11.21,11.21,0,0,0,302.27,127.65Z" transform="translate(-41.93 -39.93)" fill="#fb682d"></path></svg>